<?xml version="1.0" encoding="utf-8"?>
<!-- Generator: Adobe Illustrator 27.5.0, SVG Export Plug-In . SVG Version: 6.00 Build 0)  -->
<svg version="1.1" id="Layer_1" xmlns="http://www.w3.org/2000/svg" xmlns:xlink="http://www.w3.org/1999/xlink" x="0px" y="0px"
	 viewBox="0 0 2122 2122" style="enable-background:new 0 0 2122 2122;" xml:space="preserve">
<g>
	<rect style="fill:#FCFCFC;" width="2121.32" height="2121.32"/>
	<g>
		<g>
			<path style="fill:#FF3429;" d="M532.77,799.011c99.195-183.346,293.252-308.177,515.939-308.177
				c158.818,0,302.995,63.582,408.672,166.51l16.966-2.599c-108.754-109.609-259.399-177.596-425.638-177.596
				c-231.541,0-432.839,131.875-532.795,324.446L532.77,799.011z"/>
			<path style="fill:#FF3429;" d="M1563.467,1385.023l-17.798,2.646c-16.89,26.998-35.928,52.799-57.255,76.972l-2.216,2.516
				l28.052,147.195l-144.217-46.986l-2.739,1.777c-94.876,61.548-205.042,94.081-318.583,94.081
				c-147.125,0-281.654-54.606-384.693-144.454l-17.837,2.652c106.515,96.572,247.769,155.488,402.529,155.488
				c115.1,0,226.804-32.667,323.281-94.512l160.038,52.142l-31.135-163.37C1524.418,1444.199,1545.309,1415.347,1563.467,1385.023z"
				/>
		</g>
		<g>
			<path style="fill:#FF3429;" d="M591.922,1074.587c-10.79-12.462-16.185-32.059-16.185-58.81v-88.813
				c0-27.358,5.345-48.888,16.034-64.59c10.688-15.699,29.024-25.636,55.002-29.801c24.772-3.975,42.306-0.608,52.599,10.088
				c10.289,10.707,15.436,27.589,15.436,50.661v20.823l-47.957,7.693v-22.967c0-7.352-0.348-13.214-1.047-17.594
				c-0.705-4.377-2.503-7.819-5.398-10.315c-2.898-2.489-7.34-3.262-13.336-2.302c-8.991,1.442-14.789,5.337-17.382,11.675
				c-2.6,6.34-3.899,15.224-3.899,26.657v112.701c0,11.639,1.5,20.08,4.496,25.308c2.996,5.237,8.592,7.201,16.785,5.885
				c8.394-1.346,13.786-5.122,16.185-11.325c2.398-6.204,3.596-15.019,3.596-26.456V988.91l47.957-7.693v20.518
				c0,23.687-5.096,42.828-15.285,57.426c-10.189,14.602-27.776,23.906-52.75,27.912
				C620.997,1091.206,602.715,1087.048,591.922,1074.587z"/>
			<path style="fill:#FF3429;" d="M757.967,1048.562c-10.991-12.019-16.487-31.401-16.487-58.148v-92.492
				c0-26.744,5.495-47.737,16.487-62.975c10.987-15.239,29.372-24.924,55.149-29.061c25.574-4.103,43.906-0.255,54.998,11.545
				c11.088,11.801,16.634,30.97,16.634,57.508v92.798c0,26.542-5.546,47.593-16.634,63.155
				c-11.092,15.559-29.424,25.392-54.998,29.495C787.339,1064.524,768.954,1060.582,757.967,1048.562z M830.048,1012.802
				c2.896-6.283,4.344-14.526,4.344-24.737V870.767c0-10.207-1.449-17.885-4.344-23.039c-2.899-5.146-8.542-7.049-16.932-5.704
				c-8.395,1.345-14.041,5.06-16.937,11.138c-2.898,6.086-4.344,14.225-4.344,24.431v117.297c0,10.412,1.396,18.26,4.193,23.522
				c2.798,5.269,8.492,7.215,17.088,5.836C821.506,1022.904,827.149,1019.089,830.048,1012.802z"/>
			<path style="fill:#FF3429;" d="M921.008,791.637l52.452-8.412l29.973,151.691l31.772-161.595l50.65-8.129l4.495,247.352
				l-35.965,5.769l-3.895-167.818l-31.175,173.443l-30.571,4.906l-32.07-164.218l-3.597,169.939l-36.263,5.816L921.008,791.637z"/>
			<path style="fill:#FF3429;" d="M1126.619,758.653l49.15-7.883V998.84l-49.15,7.883V758.653z"/>
			<path style="fill:#FF3429;" d="M1212.633,744.853l34.466-5.528l53.952,120.279V730.668l41.061-6.585v248.071l-33.268,5.337
				l-53.952-128.551v137.204l-42.259,6.779V744.853z"/>
			<path style="fill:#FF3429;" d="M1390.212,945.906c-10.092-13.178-15.138-33.556-15.138-61.119v-82.994
				c0-28.175,5.345-50.42,16.037-66.738c10.685-16.306,29.02-26.55,54.997-30.718c24.975-4.006,42.756-0.629,53.351,10.12
				c10.588,10.761,15.886,27.881,15.886,51.355v14.397l-47.956,7.693v-17.457c0-11.433-1.252-19.655-3.748-24.665
				c-2.499-5.007-8.143-6.812-16.932-5.402c-8.991,1.442-14.789,5.438-17.386,11.98c-2.597,6.542-3.895,15.626-3.895,27.265V889.88
				c0,11.638,1.597,20.313,4.794,26.025c3.194,5.722,9.189,7.872,17.983,6.459c8.589-1.377,14.638-5.664,18.134-12.861
				c3.493-7.193,5.247-16.713,5.247-28.556v-26.341l-23.679,3.798v-30.624l68.334-10.962V944.22l-32.369,5.19l-3.295-21.522
				c-7.398,18.339-20.68,29.046-39.864,32.125C1417.135,963.792,1400.3,959.095,1390.212,945.906z"/>
		</g>
		<g>
			<path style="fill:#001A3B;" d="M614.367,1464.213c-16.504-15.864-25.488-43.097-26.959-81.695l62.752-20.903
				c0.59,23.086,3.759,39.663,9.503,49.726c5.747,10.07,14.365,14.177,25.851,12.336c8.542-1.375,14.728-5.143,18.562-11.333
				c3.827-6.179,5.744-13.638,5.744-22.37c0-14.451-3.168-26.204-9.498-35.279c-6.341-9.066-16.286-18.536-29.83-28.401
				l-37.124-27.01c-14.734-10.279-26.002-22.022-33.807-35.221c-7.808-13.196-11.71-29.876-11.71-50.049
				c0-29.801,8.617-54.135,25.855-73.009c17.231-18.867,41.022-30.739,71.37-35.609c32.405-5.197,54.94,0.745,67.611,17.829
				c12.663,17.087,19.889,40.237,21.654,69.453l-63.195,19.618c-0.594-19.162-2.726-33.045-6.409-41.64
				c-3.687-8.588-10.976-12.013-21.874-10.264c-7.956,1.276-14.142,5.359-18.559,12.235c-4.42,6.884-6.632,14.537-6.632,22.96
				c0,12.044,2.579,21.792,7.736,29.24c5.151,7.463,13.325,15.249,24.525,23.385l36.238,26.701
				c17.084,12.613,30.492,26.651,40.213,42.094c9.725,15.451,14.584,34.617,14.584,57.494c0,17.461-3.83,33.656-11.488,48.578
				c-7.668,14.93-18.493,27.428-32.483,37.497c-13.998,10.067-30.125,16.573-48.388,19.504
				C655.609,1485.371,630.865,1480.081,614.367,1464.213z"/>
			<path style="fill:#001A3B;" d="M838.417,1425.561c-16.206-17.72-24.305-46.294-24.305-85.734v-136.374
				c0-39.436,8.099-70.387,24.305-92.855c16.199-22.468,43.31-36.75,81.314-42.849c37.706-6.049,64.741-0.374,81.09,17.019
				c16.354,17.403,24.528,45.668,24.528,84.798v136.823c0,39.138-8.174,70.176-24.528,93.118
				c-16.35,22.943-43.385,37.44-81.09,43.489C881.727,1449.097,854.616,1443.285,838.417,1425.561z M944.698,1372.836
				c4.269-9.261,6.409-21.414,6.409-36.472v-172.947c0-15.052-2.14-26.374-6.409-33.973c-4.273-7.589-12.592-10.397-24.967-8.412
				c-12.372,1.985-20.702,7.467-24.971,16.426c-4.272,8.969-6.405,20.974-6.405,36.026v172.946c0,15.353,2.057,26.919,6.186,34.681
				c4.122,7.768,12.52,10.635,25.191,8.602C932.107,1387.729,940.425,1382.104,944.698,1372.836z"/>
			<path style="fill:#001A3B;" d="M1092.958,1384.727c-16.206-17.72-24.305-46.295-24.305-85.735v-136.373
				c0-39.432,8.099-70.388,24.305-92.856c16.199-22.468,43.31-36.749,81.314-42.848c37.709-6.05,64.741-0.37,81.091,17.018
				c16.353,17.404,24.528,45.669,24.528,84.799v136.823c0,39.138-8.175,70.175-24.528,93.118
				c-16.35,22.946-43.382,37.44-81.091,43.489C1136.268,1408.262,1109.157,1402.45,1092.958,1384.727z M1199.239,1332.005
				c4.269-9.265,6.41-21.417,6.41-36.476v-172.946c0-15.051-2.14-26.373-6.41-33.969c-4.272-7.592-12.591-10.401-24.967-8.416
				c-12.372,1.986-20.702,7.467-24.971,16.426c-4.272,8.97-6.405,20.975-6.405,36.026v172.947c0,15.354,2.057,26.92,6.186,34.681
				c4.121,7.769,12.52,10.639,25.19,8.603C1186.648,1346.895,1194.967,1341.27,1199.239,1332.005z"/>
			<path style="fill:#001A3B;" d="M1328.499,1006.692l50.823-8.154l79.544,177.345V985.778l60.544-9.715v365.764l-49.056,7.869
				l-79.545-189.537v202.301l-62.309,9.995V1006.692z"/>
		</g>
		<g style="opacity:0.3;">
			<g>
				<g>
					<path style="fill:#FFFFFF;" d="M1626.491,1358.425c-0.309,34.74-5.474,61.704-15.516,80.894
						c-10.031,19.188-26.428,30.559-49.197,34.134l-12.013-23.633c12.892-2.821,21.965-10.117,27.216-21.878
						c5.251-11.771,7.987-30.09,8.208-54.958l-34.132,4.064l0.642-72.053l75.349-8.972L1626.491,1358.425z"/>
					<path style="fill:#FFFFFF;" d="M1524.539,1370.565c-0.309,34.74-5.476,61.705-15.517,80.895
						c-10.031,19.188-26.427,30.559-49.198,34.134l-12.013-23.633c12.892-2.821,21.965-10.117,27.216-21.878
						c5.251-11.77,7.989-30.091,8.21-54.958l-34.134,4.064l0.641-72.053l75.351-8.973L1524.539,1370.565z"/>
				</g>
				<g>
					<path style="fill:#FFFFFF;" d="M178.969,1112.332c0.309-34.74,5.475-61.704,15.516-80.894
						c10.031-19.189,26.428-30.56,49.198-34.135l12.013,23.634c-12.892,2.821-21.965,10.117-27.216,21.878
						c-5.251,11.771-7.987,30.091-8.208,54.958l34.133-4.064l-0.642,72.053l-75.349,8.973L178.969,1112.332z"/>
					<path style="fill:#FFFFFF;" d="M280.921,1100.191c0.309-34.739,5.477-61.704,15.518-80.894
						c10.031-19.188,26.426-30.56,49.197-34.135l12.014,23.634c-12.892,2.821-21.965,10.117-27.216,21.878
						c-5.252,11.771-7.989,30.091-8.211,54.958l34.134-4.064l-0.641,72.053l-75.35,8.973L280.921,1100.191z"/>
				</g>
			</g>
			<g>
				<g>
					<path style="fill:#FFF8F8;" d="M1631.348,1353.569c-0.309,34.74-5.474,61.704-15.516,80.894
						c-10.031,19.188-26.428,30.56-49.197,34.134l-12.013-23.633c12.892-2.821,21.965-10.117,27.216-21.878
						c5.251-11.77,7.987-30.09,8.208-54.958l-34.132,4.064l0.641-72.053l75.349-8.972L1631.348,1353.569z"/>
					<path style="fill:#FFF8F8;" d="M1529.395,1365.709c-0.309,34.74-5.476,61.705-15.517,80.895
						c-10.031,19.188-26.427,30.559-49.198,34.134l-12.013-23.633c12.892-2.821,21.964-10.117,27.215-21.878
						c5.251-11.77,7.989-30.091,8.21-54.958l-34.134,4.064l0.642-72.053l75.351-8.973L1529.395,1365.709z"/>
				</g>
				<g>
					<path style="fill:#FFF8F8;" d="M183.825,1107.476c0.309-34.74,5.475-61.704,15.516-80.894
						c10.031-19.189,26.428-30.56,49.198-34.135l12.013,23.633c-12.892,2.821-21.964,10.117-27.215,21.878
						c-5.251,11.771-7.987,30.091-8.208,54.958l34.133-4.064l-0.642,72.053l-75.349,8.973L183.825,1107.476z"/>
					<path style="fill:#FFF8F8;" d="M285.777,1095.335c0.309-34.739,5.477-61.704,15.518-80.894
						c10.031-19.188,26.426-30.56,49.197-34.135l12.013,23.634c-12.892,2.821-21.965,10.117-27.215,21.878
						c-5.252,11.771-7.989,30.091-8.211,54.958l34.134-4.064l-0.642,72.053l-75.35,8.973L285.777,1095.335z"/>
				</g>
			</g>
			<g>
				<g>
					<path style="fill:#FFF2F1;" d="M1636.204,1348.713c-0.309,34.74-5.474,61.704-15.516,80.894
						c-10.031,19.188-26.428,30.559-49.197,34.134l-12.013-23.633c12.892-2.821,21.965-10.117,27.216-21.878
						c5.251-11.771,7.987-30.09,8.208-54.958l-34.132,4.064l0.642-72.053l75.349-8.972L1636.204,1348.713z"/>
					<path style="fill:#FFF2F1;" d="M1534.251,1360.853c-0.309,34.74-5.476,61.705-15.517,80.894
						c-10.031,19.188-26.427,30.559-49.198,34.134l-12.013-23.633c12.892-2.821,21.964-10.117,27.216-21.878
						c5.251-11.77,7.989-30.091,8.21-54.958l-34.134,4.065l0.642-72.054l75.351-8.973L1534.251,1360.853z"/>
				</g>
				<g>
					<path style="fill:#FFF2F1;" d="M188.681,1102.62c0.309-34.74,5.475-61.704,15.516-80.894
						c10.031-19.189,26.428-30.559,49.198-34.135l12.013,23.634c-12.892,2.821-21.965,10.117-27.215,21.878
						c-5.251,11.771-7.987,30.091-8.208,54.958l34.133-4.064l-0.642,72.053l-75.349,8.973L188.681,1102.62z"/>
					<path style="fill:#FFF2F1;" d="M290.633,1090.479c0.309-34.739,5.477-61.704,15.518-80.894
						c10.031-19.188,26.426-30.56,49.197-34.135l12.013,23.633c-12.892,2.821-21.965,10.117-27.216,21.878
						c-5.252,11.771-7.989,30.091-8.21,54.958l34.134-4.064l-0.642,72.053l-75.35,8.973L290.633,1090.479z"/>
				</g>
			</g>
			<g>
				<g>
					<path style="fill:#FFEBEA;" d="M1641.06,1343.857c-0.309,34.74-5.474,61.704-15.516,80.894
						c-10.031,19.188-26.428,30.559-49.197,34.134l-12.013-23.633c12.892-2.821,21.965-10.117,27.216-21.878
						c5.251-11.77,7.987-30.09,8.208-54.958l-34.132,4.064l0.642-72.053l75.349-8.972L1641.06,1343.857z"/>
					<path style="fill:#FFEBEA;" d="M1539.108,1355.997c-0.309,34.74-5.476,61.704-15.517,80.894
						c-10.031,19.188-26.427,30.559-49.198,34.134l-12.013-23.633c12.892-2.821,21.965-10.117,27.216-21.878
						c5.251-11.77,7.989-30.091,8.21-54.958l-34.134,4.064l0.642-72.053l75.351-8.973L1539.108,1355.997z"/>
				</g>
				<g>
					<path style="fill:#FFEBEA;" d="M193.537,1097.764c0.309-34.74,5.475-61.704,15.516-80.894
						c10.031-19.189,26.428-30.56,49.198-34.135l12.013,23.634c-12.892,2.821-21.965,10.117-27.215,21.878
						c-5.251,11.771-7.987,30.091-8.208,54.958l34.133-4.064l-0.642,72.053l-75.349,8.973L193.537,1097.764z"/>
					<path style="fill:#FFEBEA;" d="M295.49,1085.623c0.309-34.739,5.477-61.704,15.518-80.894
						c10.031-19.188,26.426-30.56,49.197-34.135l12.013,23.634c-12.892,2.821-21.965,10.117-27.216,21.878
						c-5.252,11.771-7.989,30.091-8.21,54.958l34.134-4.065l-0.642,72.053l-75.35,8.973L295.49,1085.623z"/>
				</g>
			</g>
			<g>
				<g>
					<path style="fill:#FFE5E3;" d="M1645.916,1339c-0.309,34.74-5.474,61.704-15.516,80.894
						c-10.031,19.188-26.428,30.56-49.197,34.134l-12.013-23.633c12.892-2.821,21.965-10.117,27.216-21.878
						c5.251-11.771,7.987-30.09,8.208-54.958l-34.132,4.064l0.641-72.053l75.349-8.972L1645.916,1339z"/>
					<path style="fill:#FFE5E3;" d="M1543.964,1351.141c-0.309,34.74-5.476,61.705-15.517,80.894
						c-10.031,19.188-26.427,30.559-49.198,34.134l-12.013-23.633c12.892-2.821,21.964-10.117,27.216-21.878
						c5.251-11.771,7.989-30.091,8.21-54.958l-34.134,4.064l0.641-72.053l75.351-8.973L1543.964,1351.141z"/>
				</g>
				<g>
					<path style="fill:#FFE5E3;" d="M198.393,1092.907c0.309-34.74,5.475-61.704,15.516-80.894
						c10.031-19.189,26.428-30.559,49.198-34.135l12.013,23.633c-12.892,2.821-21.965,10.117-27.215,21.878
						c-5.251,11.771-7.987,30.091-8.208,54.958l34.133-4.064l-0.642,72.053l-75.349,8.973L198.393,1092.907z"/>
					<path style="fill:#FFE5E3;" d="M300.346,1080.767c0.309-34.739,5.477-61.704,15.518-80.894
						c10.031-19.188,26.426-30.56,49.197-34.135l12.013,23.634c-12.892,2.821-21.965,10.117-27.216,21.878
						c-5.252,11.771-7.989,30.091-8.21,54.958l34.134-4.065l-0.642,72.053l-75.35,8.973L300.346,1080.767z"/>
				</g>
			</g>
			<g>
				<g>
					<path style="fill:#FFDEDC;" d="M1650.772,1334.144c-0.309,34.74-5.474,61.704-15.516,80.894
						c-10.031,19.189-26.428,30.56-49.197,34.134l-12.013-23.633c12.892-2.821,21.965-10.117,27.216-21.878
						c5.251-11.771,7.987-30.09,8.208-54.958l-34.132,4.064l0.642-72.053l75.349-8.972L1650.772,1334.144z"/>
					<path style="fill:#FFDEDC;" d="M1548.82,1346.285c-0.309,34.74-5.477,61.704-15.517,80.894
						c-10.031,19.188-26.427,30.559-49.198,34.134l-12.013-23.633c12.892-2.821,21.965-10.117,27.216-21.878
						c5.251-11.771,7.989-30.091,8.21-54.958l-34.134,4.064l0.642-72.053l75.351-8.973L1548.82,1346.285z"/>
				</g>
				<g>
					<path style="fill:#FFDEDC;" d="M203.249,1088.051c0.309-34.74,5.475-61.704,15.516-80.894
						c10.031-19.189,26.428-30.559,49.198-34.135l12.013,23.633c-12.892,2.821-21.964,10.117-27.215,21.878
						c-5.251,11.771-7.987,30.091-8.208,54.958l34.132-4.064l-0.641,72.053l-75.349,8.973L203.249,1088.051z"/>
					<path style="fill:#FFDEDC;" d="M305.202,1075.911c0.309-34.739,5.477-61.704,15.518-80.894
						c10.031-19.189,26.426-30.56,49.197-34.135l12.013,23.633c-12.892,2.821-21.965,10.117-27.215,21.878
						c-5.252,11.771-7.989,30.091-8.21,54.958l34.134-4.065l-0.642,72.053l-75.35,8.973L305.202,1075.911z"/>
				</g>
			</g>
			<g>
				<g>
					<path style="fill:#FFD8D6;" d="M1655.628,1329.288c-0.309,34.74-5.474,61.704-15.516,80.894
						c-10.031,19.189-26.428,30.56-49.197,34.134l-12.013-23.633c12.892-2.821,21.965-10.117,27.216-21.878
						c5.251-11.771,7.987-30.09,8.208-54.958l-34.132,4.064l0.642-72.053l75.349-8.972L1655.628,1329.288z"/>
					<path style="fill:#FFD8D6;" d="M1553.676,1341.428c-0.309,34.74-5.477,61.704-15.518,80.894
						c-10.031,19.188-26.427,30.559-49.198,34.134l-12.013-23.633c12.892-2.821,21.964-10.117,27.215-21.878
						c5.251-11.771,7.989-30.091,8.21-54.958l-34.134,4.064l0.642-72.053l75.351-8.973L1553.676,1341.428z"/>
				</g>
				<g>
					<path style="fill:#FFD8D6;" d="M208.106,1083.195c0.309-34.74,5.475-61.704,15.516-80.894
						c10.031-19.189,26.428-30.559,49.198-34.135l12.013,23.633c-12.892,2.821-21.965,10.117-27.215,21.878
						c-5.251,11.771-7.987,30.091-8.208,54.958l34.132-4.064l-0.642,72.053l-75.349,8.973L208.106,1083.195z"/>
					<path style="fill:#FFD8D6;" d="M310.058,1071.054c0.309-34.739,5.477-61.704,15.518-80.894
						c10.031-19.188,26.426-30.56,49.197-34.135l12.013,23.634c-12.892,2.821-21.965,10.117-27.216,21.878
						c-5.252,11.771-7.989,30.091-8.21,54.958l34.134-4.065l-0.641,72.053l-75.351,8.973L310.058,1071.054z"/>
				</g>
			</g>
			<g>
				<g>
					<path style="fill:#FFD1CF;" d="M1660.484,1324.432c-0.309,34.74-5.474,61.704-15.516,80.894
						c-10.031,19.188-26.428,30.56-49.197,34.134l-12.013-23.633c12.892-2.821,21.965-10.117,27.216-21.878
						c5.251-11.771,7.987-30.091,8.208-54.958l-34.132,4.064l0.642-72.053l75.349-8.972L1660.484,1324.432z"/>
					<path style="fill:#FFD1CF;" d="M1558.532,1336.572c-0.309,34.74-5.477,61.704-15.518,80.894
						c-10.031,19.188-26.427,30.559-49.198,34.134l-12.013-23.633c12.892-2.821,21.964-10.117,27.215-21.878
						c5.251-11.771,7.989-30.091,8.21-54.958l-34.134,4.065l0.641-72.053l75.351-8.973L1558.532,1336.572z"/>
				</g>
				<g>
					<path style="fill:#FFD1CF;" d="M212.962,1078.339c0.309-34.74,5.475-61.704,15.516-80.894
						c10.031-19.189,26.428-30.559,49.198-34.135l12.013,23.633c-12.892,2.821-21.965,10.117-27.216,21.878
						c-5.251,11.771-7.987,30.091-8.208,54.958l34.133-4.064l-0.642,72.053l-75.349,8.973L212.962,1078.339z"/>
					<path style="fill:#FFD1CF;" d="M314.914,1066.198c0.309-34.739,5.477-61.704,15.518-80.894
						c10.031-19.189,26.426-30.56,49.197-34.135l12.013,23.634c-12.892,2.821-21.965,10.117-27.216,21.878
						c-5.252,11.771-7.989,30.091-8.21,54.958l34.134-4.065l-0.642,72.053l-75.35,8.973L314.914,1066.198z"/>
				</g>
			</g>
			<g>
				<g>
					<path style="fill:#FFCBC8;" d="M1665.341,1319.576c-0.309,34.74-5.474,61.704-15.516,80.894
						c-10.031,19.189-26.428,30.56-49.197,34.134l-12.013-23.633c12.892-2.821,21.965-10.117,27.216-21.878
						c5.251-11.771,7.987-30.091,8.208-54.958l-34.132,4.064l0.641-72.053l75.349-8.972L1665.341,1319.576z"/>
					<path style="fill:#FFCBC8;" d="M1563.388,1331.716c-0.309,34.74-5.477,61.705-15.518,80.894
						c-10.031,19.188-26.427,30.559-49.198,34.134l-12.013-23.633c12.892-2.821,21.964-10.117,27.215-21.878
						c5.251-11.771,7.989-30.091,8.21-54.958l-34.134,4.065l0.642-72.053l75.351-8.973L1563.388,1331.716z"/>
				</g>
				<g>
					<path style="fill:#FFCBC8;" d="M217.818,1073.483c0.309-34.74,5.475-61.704,15.516-80.894
						c10.031-19.189,26.428-30.559,49.198-34.135l12.013,23.633c-12.892,2.821-21.965,10.117-27.216,21.878
						c-5.251,11.771-7.987,30.091-8.208,54.958l34.132-4.064l-0.642,72.053l-75.349,8.973L217.818,1073.483z"/>
					<path style="fill:#FFCBC8;" d="M319.77,1061.342c0.309-34.739,5.477-61.704,15.518-80.894
						c10.031-19.188,26.426-30.56,49.197-34.135l12.013,23.634c-12.892,2.821-21.965,10.117-27.216,21.878
						c-5.252,11.771-7.989,30.091-8.21,54.958l34.134-4.065l-0.642,72.053l-75.35,8.973L319.77,1061.342z"/>
				</g>
			</g>
			<g>
				<g>
					<path style="fill:#FFC4C1;" d="M1670.197,1314.72c-0.309,34.74-5.474,61.704-15.516,80.894
						c-10.031,19.189-26.428,30.56-49.197,34.134l-12.013-23.633c12.892-2.821,21.965-10.117,27.216-21.878
						c5.251-11.771,7.987-30.091,8.208-54.958l-34.132,4.064l0.642-72.053l75.349-8.972L1670.197,1314.72z"/>
					<path style="fill:#FFC4C1;" d="M1568.245,1326.86c-0.309,34.74-5.477,61.704-15.518,80.894
						c-10.031,19.189-26.427,30.559-49.198,34.134l-12.013-23.633c12.892-2.821,21.964-10.117,27.215-21.878
						c5.251-11.771,7.989-30.091,8.21-54.958l-34.134,4.065l0.642-72.053l75.351-8.973L1568.245,1326.86z"/>
				</g>
				<g>
					<path style="fill:#FFC4C1;" d="M222.674,1068.627c0.309-34.74,5.475-61.704,15.516-80.894
						c10.031-19.189,26.428-30.559,49.198-34.135l12.013,23.633c-12.892,2.821-21.965,10.117-27.216,21.878
						c-5.251,11.771-7.987,30.091-8.208,54.958l34.132-4.064l-0.641,72.053l-75.349,8.973L222.674,1068.627z"/>
					<path style="fill:#FFC4C1;" d="M324.626,1056.486c0.309-34.739,5.477-61.704,15.518-80.894
						c10.031-19.189,26.426-30.56,49.197-34.135l12.013,23.634c-12.892,2.821-21.965,10.117-27.215,21.878
						c-5.251,11.771-7.989,30.091-8.21,54.958l34.134-4.065l-0.642,72.053l-75.351,8.973L324.626,1056.486z"/>
				</g>
			</g>
			<g>
				<g>
					<path style="fill:#FFBEBA;" d="M1675.053,1309.864c-0.309,34.74-5.474,61.704-15.516,80.894
						c-10.031,19.189-26.428,30.56-49.197,34.134l-12.013-23.633c12.892-2.821,21.965-10.117,27.216-21.878
						c5.251-11.771,7.987-30.091,8.208-54.958l-34.132,4.064l0.641-72.053l75.349-8.972L1675.053,1309.864z"/>
					<path style="fill:#FFBEBA;" d="M1573.101,1322.004c-0.309,34.74-5.477,61.705-15.517,80.894
						c-10.031,19.189-26.427,30.559-49.198,34.134l-12.013-23.633c12.892-2.821,21.964-10.117,27.215-21.878
						c5.251-11.771,7.989-30.091,8.21-54.958l-34.134,4.065l0.642-72.053l75.351-8.973L1573.101,1322.004z"/>
				</g>
				<g>
					<path style="fill:#FFBEBA;" d="M227.53,1063.771c0.309-34.74,5.475-61.704,15.516-80.894
						c10.031-19.189,26.428-30.559,49.198-34.135l12.013,23.633c-12.892,2.821-21.965,10.117-27.215,21.878
						c-5.251,11.771-7.987,30.091-8.208,54.958l34.132-4.064l-0.642,72.053l-75.349,8.973L227.53,1063.771z"/>
					<path style="fill:#FFBEBA;" d="M329.483,1051.63c0.309-34.739,5.477-61.704,15.518-80.894
						c10.031-19.189,26.426-30.56,49.197-34.135l12.013,23.634c-12.892,2.821-21.965,10.117-27.215,21.878
						c-5.251,11.771-7.989,30.091-8.21,54.958l34.134-4.065l-0.642,72.053l-75.351,8.973L329.483,1051.63z"/>
				</g>
			</g>
			<g>
				<g>
					<path style="fill:#FFB7B3;" d="M1679.909,1305.007c-0.309,34.74-5.474,61.704-15.516,80.894
						c-10.031,19.189-26.428,30.559-49.197,34.134l-12.013-23.633c12.892-2.821,21.965-10.117,27.216-21.878
						c5.251-11.771,7.987-30.091,8.208-54.958l-34.132,4.064l0.641-72.053l75.349-8.972L1679.909,1305.007z"/>
					<path style="fill:#FFB7B3;" d="M1577.957,1317.148c-0.309,34.74-5.477,61.704-15.518,80.894
						c-10.031,19.189-26.427,30.559-49.198,34.134l-12.013-23.633c12.892-2.821,21.964-10.117,27.216-21.878
						c5.251-11.771,7.989-30.091,8.21-54.958l-34.134,4.065l0.642-72.054l75.351-8.973L1577.957,1317.148z"/>
				</g>
				<g>
					<path style="fill:#FFB7B3;" d="M232.386,1058.915c0.309-34.74,5.475-61.704,15.516-80.894
						c10.031-19.189,26.428-30.559,49.198-34.135l12.013,23.633c-12.892,2.821-21.965,10.117-27.216,21.878
						c-5.251,11.771-7.987,30.091-8.208,54.958l34.132-4.064l-0.642,72.053l-75.349,8.973L232.386,1058.915z"/>
					<path style="fill:#FFB7B3;" d="M334.339,1046.774c0.309-34.739,5.477-61.704,15.518-80.894
						c10.031-19.189,26.426-30.56,49.197-34.135l12.013,23.634c-12.892,2.821-21.965,10.117-27.216,21.878
						c-5.251,11.771-7.989,30.091-8.21,54.958l34.134-4.065l-0.641,72.053l-75.351,8.973L334.339,1046.774z"/>
				</g>
			</g>
			<g>
				<g>
					<path style="fill:#FFB0AC;" d="M1684.765,1300.151c-0.309,34.74-5.474,61.704-15.516,80.894
						c-10.031,19.189-26.428,30.559-49.197,34.134l-12.013-23.633c12.892-2.821,21.965-10.117,27.216-21.878
						c5.251-11.771,7.987-30.091,8.208-54.958l-34.132,4.064l0.642-72.053l75.349-8.972L1684.765,1300.151z"/>
					<path style="fill:#FFB0AC;" d="M1582.813,1312.292c-0.309,34.74-5.477,61.704-15.518,80.894
						c-10.031,19.189-26.427,30.559-49.198,34.134l-12.013-23.633c12.892-2.821,21.965-10.117,27.216-21.878
						c5.251-11.771,7.989-30.091,8.21-54.958l-34.134,4.065l0.642-72.053l75.351-8.973L1582.813,1312.292z"/>
				</g>
				<g>
					<path style="fill:#FFB0AC;" d="M237.243,1054.058c0.309-34.739,5.475-61.704,15.515-80.894
						c10.031-19.189,26.428-30.559,49.198-34.135l12.013,23.633c-12.892,2.821-21.965,10.117-27.216,21.878
						c-5.251,11.771-7.987,30.091-8.208,54.958l34.132-4.064l-0.642,72.053l-75.349,8.973L237.243,1054.058z"/>
					<path style="fill:#FFB0AC;" d="M339.195,1041.917c0.309-34.739,5.477-61.704,15.518-80.894
						c10.031-19.189,26.426-30.56,49.197-34.135l12.013,23.634c-12.892,2.821-21.965,10.117-27.216,21.878
						c-5.251,11.771-7.989,30.091-8.21,54.958l34.134-4.065l-0.642,72.053l-75.351,8.973L339.195,1041.917z"/>
				</g>
			</g>
			<g>
				<g>
					<path style="fill:#FFAAA5;" d="M1689.621,1295.295c-0.309,34.74-5.474,61.704-15.516,80.894
						c-10.031,19.189-26.428,30.559-49.197,34.134l-12.013-23.633c12.892-2.821,21.965-10.117,27.216-21.878
						c5.251-11.771,7.987-30.091,8.208-54.958l-34.132,4.064l0.641-72.053l75.349-8.972L1689.621,1295.295z"/>
					<path style="fill:#FFAAA5;" d="M1587.669,1307.436c-0.309,34.74-5.477,61.704-15.518,80.894
						c-10.031,19.189-26.427,30.559-49.198,34.134l-12.013-23.633c12.892-2.821,21.964-10.117,27.216-21.878
						c5.251-11.771,7.989-30.091,8.21-54.958l-34.134,4.065l0.641-72.053l75.351-8.973L1587.669,1307.436z"/>
				</g>
				<g>
					<path style="fill:#FFAAA5;" d="M242.099,1049.202c0.309-34.74,5.475-61.704,15.516-80.894
						c10.031-19.189,26.428-30.559,49.198-34.135l12.013,23.633c-12.892,2.821-21.965,10.117-27.216,21.878
						c-5.251,11.771-7.987,30.091-8.208,54.958l34.132-4.064l-0.642,72.053l-75.349,8.973L242.099,1049.202z"/>
					<path style="fill:#FFAAA5;" d="M344.051,1037.061c0.309-34.739,5.477-61.704,15.518-80.894
						c10.031-19.189,26.426-30.56,49.197-34.135l12.013,23.634c-12.892,2.821-21.964,10.117-27.215,21.878
						c-5.251,11.771-7.989,30.091-8.21,54.958l34.134-4.065l-0.641,72.053l-75.351,8.973L344.051,1037.061z"/>
				</g>
			</g>
			<g>
				<g>
					<path style="fill:#FFA39E;" d="M1694.478,1290.439c-0.309,34.74-5.474,61.704-15.516,80.894
						c-10.031,19.189-26.428,30.559-49.197,34.134l-12.013-23.633c12.892-2.821,21.965-10.117,27.216-21.878
						c5.251-11.771,7.987-30.091,8.208-54.958l-34.132,4.064l0.641-72.053l75.349-8.972L1694.478,1290.439z"/>
					<path style="fill:#FFA39E;" d="M1592.525,1302.579c-0.309,34.74-5.477,61.704-15.518,80.894
						c-10.031,19.189-26.427,30.559-49.198,34.134l-12.013-23.633c12.892-2.821,21.965-10.117,27.216-21.878
						c5.251-11.771,7.989-30.091,8.21-54.958l-34.134,4.065l0.642-72.053l75.351-8.973L1592.525,1302.579z"/>
				</g>
				<g>
					<path style="fill:#FFA39E;" d="M246.955,1044.346c0.309-34.74,5.475-61.704,15.516-80.894
						c10.031-19.189,26.428-30.559,49.198-34.134l12.013,23.633c-12.892,2.821-21.965,10.117-27.215,21.878
						c-5.251,11.771-7.987,30.091-8.208,54.958l34.132-4.064l-0.642,72.053l-75.349,8.973L246.955,1044.346z"/>
					<path style="fill:#FFA39E;" d="M348.907,1032.205c0.309-34.739,5.477-61.704,15.518-80.894
						c10.031-19.189,26.426-30.56,49.197-34.135l12.013,23.634c-12.892,2.821-21.965,10.117-27.215,21.878
						c-5.251,11.771-7.989,30.091-8.21,54.958l34.134-4.065l-0.642,72.053l-75.351,8.973L348.907,1032.205z"/>
				</g>
			</g>
			<g>
				<g>
					<path style="fill:#FF9D97;" d="M1699.334,1285.583c-0.309,34.74-5.474,61.704-15.516,80.894
						c-10.031,19.189-26.428,30.56-49.197,34.135l-12.013-23.633c12.892-2.821,21.965-10.117,27.216-21.878
						c5.251-11.771,7.987-30.091,8.208-54.958l-34.132,4.064l0.642-72.054l75.349-8.972L1699.334,1285.583z"/>
					<path style="fill:#FF9D97;" d="M1597.381,1297.723c-0.309,34.74-5.477,61.704-15.518,80.894
						c-10.031,19.189-26.427,30.559-49.198,34.135l-12.013-23.633c12.892-2.821,21.964-10.117,27.215-21.878
						c5.251-11.771,7.989-30.091,8.21-54.958l-34.134,4.065l0.642-72.053l75.351-8.973L1597.381,1297.723z"/>
				</g>
				<g>
					<path style="fill:#FF9D97;" d="M251.811,1039.49c0.309-34.74,5.474-61.704,15.515-80.894
						c10.031-19.189,26.428-30.559,49.198-34.134l12.013,23.633c-12.892,2.821-21.965,10.117-27.216,21.878
						c-5.251,11.771-7.987,30.091-8.208,54.958l34.132-4.064l-0.642,72.053l-75.349,8.973L251.811,1039.49z"/>
					<path style="fill:#FF9D97;" d="M353.763,1027.349c0.309-34.739,5.477-61.704,15.518-80.894
						c10.031-19.189,26.426-30.56,49.197-34.135l12.013,23.633c-12.892,2.821-21.965,10.117-27.216,21.878
						c-5.251,11.771-7.989,30.091-8.21,54.958l34.134-4.065l-0.642,72.053l-75.351,8.973L353.763,1027.349z"/>
				</g>
			</g>
			<g>
				<g>
					<path style="fill:#FF9691;" d="M1704.19,1280.727c-0.309,34.74-5.474,61.704-15.516,80.894
						c-10.031,19.189-26.428,30.559-49.197,34.134l-12.013-23.633c12.892-2.821,21.965-10.117,27.216-21.878
						c5.251-11.771,7.987-30.091,8.208-54.958l-34.132,4.064l0.642-72.053l75.349-8.972L1704.19,1280.727z"/>
					<path style="fill:#FF9691;" d="M1602.238,1292.867c-0.309,34.74-5.477,61.704-15.518,80.894
						c-10.031,19.189-26.427,30.559-49.198,34.135l-12.013-23.633c12.892-2.821,21.964-10.117,27.215-21.878
						c5.251-11.771,7.989-30.091,8.21-54.958l-34.134,4.065l0.641-72.053l75.351-8.973L1602.238,1292.867z"/>
				</g>
				<g>
					<path style="fill:#FF9691;" d="M256.667,1034.634c0.309-34.74,5.475-61.704,15.515-80.894
						c10.031-19.189,26.429-30.559,49.198-34.135l12.013,23.633c-12.892,2.821-21.965,10.117-27.216,21.878
						c-5.251,11.771-7.987,30.091-8.208,54.958l34.132-4.064l-0.642,72.053l-75.349,8.972L256.667,1034.634z"/>
					<path style="fill:#FF9691;" d="M358.619,1022.493c0.309-34.739,5.477-61.704,15.518-80.894
						c10.031-19.189,26.426-30.56,49.197-34.135l12.013,23.634c-12.892,2.821-21.965,10.117-27.216,21.878
						c-5.251,11.771-7.989,30.091-8.21,54.958l34.134-4.065l-0.642,72.053l-75.351,8.973L358.619,1022.493z"/>
				</g>
			</g>
			<g>
				<g>
					<path style="fill:#FF908A;" d="M1709.046,1275.87c-0.309,34.74-5.475,61.704-15.516,80.894
						c-10.031,19.189-26.428,30.56-49.197,34.134l-12.013-23.633c12.892-2.821,21.965-10.117,27.216-21.878
						c5.251-11.771,7.987-30.091,8.208-54.958l-34.132,4.064l0.641-72.053l75.349-8.972L1709.046,1275.87z"/>
					<path style="fill:#FF908A;" d="M1607.094,1288.011c-0.309,34.74-5.477,61.704-15.518,80.894
						c-10.031,19.189-26.427,30.559-49.198,34.135l-12.013-23.633c12.892-2.821,21.964-10.117,27.215-21.878
						c5.251-11.771,7.989-30.091,8.21-54.958l-34.134,4.065l0.641-72.053l75.351-8.973L1607.094,1288.011z"/>
				</g>
				<g>
					<path style="fill:#FF908A;" d="M261.523,1029.778c0.309-34.74,5.474-61.704,15.515-80.894
						c10.031-19.189,26.428-30.559,49.198-34.134l12.013,23.633c-12.892,2.821-21.965,10.117-27.216,21.878
						c-5.251,11.771-7.987,30.091-8.208,54.958l34.132-4.064l-0.642,72.053l-75.349,8.972L261.523,1029.778z"/>
					<path style="fill:#FF908A;" d="M363.476,1017.637c0.309-34.739,5.477-61.704,15.518-80.894
						c10.031-19.189,26.426-30.56,49.197-34.135l12.013,23.634c-12.892,2.821-21.964,10.117-27.215,21.878
						c-5.251,11.771-7.989,30.091-8.21,54.958l34.134-4.065l-0.642,72.053l-75.351,8.973L363.476,1017.637z"/>
				</g>
			</g>
			<g>
				<g>
					<path style="fill:#FF8983;" d="M1713.902,1271.014c-0.309,34.74-5.475,61.704-15.516,80.894
						c-10.031,19.189-26.428,30.56-49.197,34.135l-12.013-23.633c12.892-2.821,21.965-10.117,27.216-21.878
						c5.251-11.771,7.987-30.091,8.208-54.958l-34.132,4.064l0.642-72.053l75.349-8.972L1713.902,1271.014z"/>
					<path style="fill:#FF8983;" d="M1611.95,1283.155c-0.309,34.74-5.477,61.704-15.518,80.894
						c-10.031,19.189-26.427,30.559-49.198,34.135l-12.013-23.633c12.892-2.821,21.964-10.117,27.215-21.878
						c5.252-11.771,7.989-30.091,8.21-54.958l-34.134,4.065l0.642-72.054l75.351-8.973L1611.95,1283.155z"/>
				</g>
				<g>
					<path style="fill:#FF8983;" d="M266.379,1024.922c0.309-34.74,5.475-61.704,15.515-80.894
						c10.031-19.189,26.429-30.559,49.198-34.134l12.013,23.633c-12.892,2.821-21.965,10.117-27.215,21.878
						c-5.251,11.771-7.987,30.091-8.208,54.958l34.132-4.064l-0.642,72.053l-75.349,8.972L266.379,1024.922z"/>
					<path style="fill:#FF8983;" d="M368.332,1012.781c0.309-34.739,5.477-61.704,15.518-80.894
						c10.031-19.189,26.426-30.56,49.197-34.135l12.013,23.633c-12.892,2.821-21.965,10.117-27.215,21.878
						c-5.251,11.771-7.989,30.091-8.21,54.958l34.134-4.065l-0.641,72.053l-75.351,8.973L368.332,1012.781z"/>
				</g>
			</g>
			<g>
				<g>
					<path style="fill:#FF837C;" d="M1718.758,1266.158c-0.309,34.74-5.475,61.704-15.516,80.894
						c-10.031,19.189-26.429,30.56-49.197,34.135l-12.013-23.633c12.892-2.821,21.965-10.117,27.216-21.878
						c5.251-11.771,7.987-30.091,8.208-54.958l-34.132,4.064l0.642-72.053l75.349-8.972L1718.758,1266.158z"/>
					<path style="fill:#FF837C;" d="M1616.806,1278.299c-0.309,34.74-5.477,61.704-15.518,80.894
						c-10.031,19.189-26.427,30.559-49.198,34.135l-12.013-23.633c12.892-2.821,21.964-10.117,27.215-21.878
						c5.251-11.771,7.989-30.091,8.21-54.958l-34.134,4.065l0.642-72.053l75.351-8.973L1616.806,1278.299z"/>
				</g>
				<g>
					<path style="fill:#FF837C;" d="M271.236,1020.065c0.309-34.74,5.475-61.704,15.515-80.894
						c10.031-19.189,26.428-30.559,49.198-34.134l12.013,23.633c-12.892,2.821-21.964,10.117-27.215,21.878
						c-5.251,11.771-7.987,30.091-8.208,54.958l34.132-4.064l-0.642,72.053l-75.349,8.972L271.236,1020.065z"/>
					<path style="fill:#FF837C;" d="M373.188,1007.925c0.309-34.739,5.477-61.704,15.518-80.894
						c10.031-19.189,26.426-30.56,49.197-34.135l12.013,23.634c-12.892,2.821-21.965,10.117-27.215,21.878
						c-5.251,11.771-7.989,30.091-8.21,54.958l34.134-4.065l-0.642,72.053l-75.351,8.973L373.188,1007.925z"/>
				</g>
			</g>
			<g>
				<g>
					<path style="fill:#FF7C75;" d="M1723.615,1261.302c-0.309,34.74-5.475,61.704-15.516,80.894
						c-10.031,19.189-26.429,30.56-49.198,34.135l-12.013-23.633c12.892-2.821,21.965-10.117,27.216-21.878
						c5.251-11.771,7.987-30.091,8.208-54.958l-34.132,4.064l0.641-72.053l75.349-8.972L1723.615,1261.302z"/>
					<path style="fill:#FF7C75;" d="M1621.662,1273.443c-0.309,34.74-5.477,61.704-15.518,80.894
						c-10.031,19.189-26.427,30.559-49.198,34.135l-12.013-23.633c12.892-2.821,21.964-10.117,27.216-21.878
						c5.251-11.771,7.989-30.091,8.21-54.958l-34.134,4.065l0.641-72.053l75.351-8.973L1621.662,1273.443z"/>
				</g>
				<g>
					<path style="fill:#FF7C75;" d="M276.092,1015.209c0.309-34.74,5.474-61.704,15.515-80.894
						c10.031-19.189,26.429-30.559,49.198-34.134l12.013,23.633c-12.892,2.821-21.965,10.117-27.216,21.878
						c-5.251,11.771-7.987,30.091-8.208,54.958l34.132-4.064l-0.642,72.053l-75.349,8.973L276.092,1015.209z"/>
					<path style="fill:#FF7C75;" d="M378.044,1003.068c0.309-34.739,5.477-61.704,15.518-80.894
						c10.031-19.189,26.426-30.56,49.197-34.135l12.013,23.634c-12.892,2.821-21.965,10.117-27.216,21.878
						c-5.251,11.771-7.989,30.091-8.21,54.958l34.134-4.065l-0.642,72.053l-75.351,8.973L378.044,1003.068z"/>
				</g>
			</g>
			<g>
				<g>
					<path style="fill:#FF756E;" d="M1728.471,1256.446c-0.309,34.74-5.475,61.704-15.516,80.894
						c-10.031,19.189-26.429,30.56-49.198,34.135l-12.013-23.633c12.892-2.821,21.965-10.117,27.216-21.878
						c5.251-11.771,7.987-30.091,8.208-54.958l-34.132,4.064l0.642-72.053l75.349-8.972L1728.471,1256.446z"/>
					<path style="fill:#FF756E;" d="M1626.518,1268.586c-0.309,34.74-5.477,61.704-15.518,80.894
						c-10.031,19.189-26.427,30.559-49.198,34.135l-12.013-23.633c12.892-2.821,21.965-10.117,27.216-21.878
						c5.251-11.771,7.989-30.091,8.21-54.958l-34.134,4.065l0.642-72.053l75.351-8.973L1626.518,1268.586z"/>
				</g>
				<g>
					<path style="fill:#FF756E;" d="M280.948,1010.353c0.309-34.74,5.474-61.704,15.515-80.894
						c10.031-19.189,26.429-30.559,49.198-34.134l12.013,23.633c-12.892,2.821-21.965,10.117-27.216,21.878
						c-5.251,11.771-7.987,30.091-8.208,54.958l34.132-4.064l-0.641,72.053l-75.349,8.972L280.948,1010.353z"/>
					<path style="fill:#FF756E;" d="M382.9,998.212c0.309-34.739,5.477-61.704,15.517-80.894
						c10.031-19.189,26.426-30.56,49.198-34.135l12.013,23.634c-12.892,2.821-21.964,10.117-27.215,21.878
						c-5.251,11.771-7.989,30.091-8.21,54.958l34.134-4.065l-0.642,72.053l-75.351,8.973L382.9,998.212z"/>
				</g>
			</g>
			<g>
				<g>
					<path style="fill:#FF6F67;" d="M1733.327,1251.59c-0.309,34.74-5.475,61.704-15.516,80.894
						c-10.031,19.189-26.429,30.56-49.198,34.135l-12.013-23.633c12.892-2.821,21.965-10.117,27.216-21.878
						c5.251-11.771,7.987-30.091,8.208-54.958l-34.132,4.064l0.642-72.053l75.349-8.972L1733.327,1251.59z"/>
					<path style="fill:#FF6F67;" d="M1631.375,1263.73c-0.309,34.74-5.477,61.704-15.518,80.894
						c-10.031,19.189-26.427,30.559-49.198,34.135l-12.013-23.633c12.892-2.82,21.965-10.117,27.216-21.878
						c5.251-11.771,7.989-30.091,8.21-54.958l-34.134,4.065l0.641-72.053l75.351-8.973L1631.375,1263.73z"/>
				</g>
				<g>
					<path style="fill:#FF6F67;" d="M285.804,1005.497c0.309-34.74,5.474-61.704,15.515-80.894
						c10.031-19.189,26.429-30.559,49.198-34.134l12.013,23.633c-12.892,2.821-21.964,10.117-27.215,21.878
						c-5.251,11.771-7.987,30.091-8.208,54.958l34.132-4.064l-0.642,72.053l-75.349,8.972L285.804,1005.497z"/>
					<path style="fill:#FF6F67;" d="M387.756,993.356c0.309-34.739,5.477-61.704,15.518-80.894
						c10.031-19.189,26.426-30.56,49.197-34.135l12.013,23.634c-12.892,2.82-21.964,10.117-27.216,21.878
						c-5.251,11.771-7.989,30.091-8.21,54.958l34.134-4.065l-0.642,72.053l-75.351,8.973L387.756,993.356z"/>
				</g>
			</g>
			<g>
				<g>
					<path style="fill:#FF6860;" d="M1738.183,1246.733c-0.309,34.74-5.475,61.704-15.516,80.894
						c-10.031,19.189-26.429,30.56-49.198,34.135l-12.013-23.633c12.892-2.821,21.965-10.117,27.216-21.878
						c5.251-11.771,7.987-30.091,8.208-54.958l-34.132,4.064l0.641-72.053l75.349-8.972L1738.183,1246.733z"/>
					<path style="fill:#FF6860;" d="M1636.231,1258.874c-0.309,34.74-5.477,61.704-15.518,80.894
						c-10.031,19.189-26.427,30.559-49.198,34.135l-12.013-23.633c12.892-2.82,21.965-10.117,27.216-21.878
						c5.251-11.771,7.989-30.091,8.21-54.958l-34.134,4.065l0.641-72.053l75.351-8.973L1636.231,1258.874z"/>
				</g>
				<g>
					<path style="fill:#FF6860;" d="M290.66,1000.641c0.309-34.74,5.474-61.704,15.515-80.894
						c10.031-19.189,26.429-30.559,49.198-34.134l12.013,23.633c-12.892,2.821-21.965,10.117-27.215,21.878
						c-5.251,11.771-7.987,30.091-8.208,54.958l34.132-4.064l-0.642,72.053l-75.349,8.972L290.66,1000.641z"/>
					<path style="fill:#FF6860;" d="M392.613,988.5c0.309-34.739,5.477-61.704,15.518-80.894
						c10.031-19.189,26.426-30.56,49.197-34.135l12.013,23.634c-12.892,2.82-21.964,10.117-27.215,21.878
						c-5.251,11.771-7.989,30.091-8.21,54.958l34.134-4.065l-0.642,72.053l-75.351,8.973L392.613,988.5z"/>
				</g>
			</g>
			<g>
				<g>
					<path style="fill:#FF6259;" d="M1743.039,1241.877c-0.309,34.74-5.475,61.704-15.516,80.894
						c-10.031,19.189-26.429,30.56-49.198,34.135l-12.013-23.633c12.892-2.821,21.965-10.117,27.216-21.878
						c5.251-11.771,7.987-30.091,8.208-54.958l-34.132,4.064l0.642-72.053l75.349-8.972L1743.039,1241.877z"/>
					<path style="fill:#FF6259;" d="M1641.087,1254.018c-0.309,34.74-5.477,61.704-15.518,80.894
						c-10.031,19.189-26.427,30.559-49.198,34.135l-12.013-23.633c12.892-2.82,21.964-10.117,27.215-21.878
						c5.252-11.771,7.989-30.091,8.21-54.958l-34.134,4.065l0.642-72.053l75.351-8.973L1641.087,1254.018z"/>
				</g>
				<g>
					<path style="fill:#FF6259;" d="M295.516,995.785c0.309-34.74,5.474-61.704,15.515-80.894
						c10.031-19.188,26.429-30.559,49.198-34.134l12.013,23.633c-12.892,2.821-21.965,10.117-27.216,21.878
						c-5.251,11.771-7.987,30.091-8.208,54.958l34.132-4.064l-0.642,72.053l-75.349,8.972L295.516,995.785z"/>
					<path style="fill:#FF6259;" d="M397.469,983.644c0.309-34.74,5.477-61.704,15.517-80.894
						c10.031-19.189,26.427-30.56,49.198-34.135l12.013,23.633c-12.892,2.82-21.965,10.117-27.216,21.878
						c-5.251,11.771-7.989,30.091-8.21,54.958l34.134-4.065l-0.641,72.053l-75.351,8.973L397.469,983.644z"/>
				</g>
			</g>
			<g>
				<g>
					<path style="fill:#FF5B52;" d="M1747.895,1237.021c-0.309,34.74-5.475,61.704-15.516,80.894
						c-10.031,19.189-26.429,30.559-49.198,34.135l-12.013-23.633c12.892-2.821,21.965-10.117,27.216-21.878
						c5.251-11.771,7.987-30.091,8.208-54.958l-34.132,4.064l0.642-72.054l75.349-8.972L1747.895,1237.021z"/>
					<path style="fill:#FF5B52;" d="M1645.943,1249.162c-0.309,34.74-5.477,61.704-15.518,80.894
						c-10.031,19.189-26.427,30.559-49.198,34.135l-12.013-23.634c12.892-2.82,21.964-10.117,27.216-21.878
						c5.252-11.771,7.989-30.091,8.21-54.958l-34.134,4.065l0.642-72.053l75.351-8.973L1645.943,1249.162z"/>
				</g>
				<g>
					<path style="fill:#FF5B52;" d="M300.373,990.929c0.309-34.74,5.474-61.704,15.515-80.894
						c10.031-19.189,26.429-30.559,49.198-34.134l12.013,23.633c-12.892,2.821-21.965,10.117-27.216,21.878
						c-5.251,11.771-7.987,30.09-8.208,54.958l34.132-4.064l-0.642,72.053l-75.349,8.972L300.373,990.929z"/>
					<path style="fill:#FF5B52;" d="M402.325,978.788c0.309-34.739,5.477-61.704,15.517-80.894
						c10.031-19.189,26.427-30.56,49.198-34.135l12.013,23.634c-12.892,2.82-21.965,10.117-27.216,21.878
						c-5.251,11.771-7.989,30.091-8.21,54.958l34.134-4.065l-0.642,72.053l-75.351,8.973L402.325,978.788z"/>
				</g>
			</g>
			<g>
				<g>
					<path style="fill:#FF554C;" d="M1752.751,1232.165c-0.309,34.74-5.475,61.704-15.516,80.894
						c-10.031,19.189-26.429,30.56-49.198,34.135l-12.013-23.633c12.892-2.821,21.965-10.117,27.216-21.878
						c5.251-11.771,7.987-30.091,8.208-54.958l-34.132,4.064l0.641-72.053l75.349-8.972L1752.751,1232.165z"/>
					<path style="fill:#FF554C;" d="M1650.799,1244.306c-0.309,34.74-5.477,61.704-15.518,80.894
						c-10.031,19.189-26.427,30.559-49.198,34.135l-12.013-23.633c12.892-2.821,21.964-10.117,27.215-21.878
						c5.252-11.771,7.989-30.091,8.21-54.958l-34.134,4.065l0.641-72.053l75.351-8.973L1650.799,1244.306z"/>
				</g>
				<g>
					<path style="fill:#FF554C;" d="M305.229,986.073c0.309-34.74,5.474-61.704,15.515-80.894
						c10.031-19.189,26.429-30.559,49.198-34.134l12.013,23.633c-12.892,2.821-21.964,10.117-27.215,21.878
						c-5.251,11.771-7.987,30.091-8.208,54.958l34.132-4.064l-0.642,72.053l-75.349,8.972L305.229,986.073z"/>
					<path style="fill:#FF554C;" d="M407.181,973.932c0.309-34.74,5.477-61.704,15.517-80.894
						c10.031-19.189,26.427-30.56,49.198-34.135l12.013,23.634c-12.892,2.82-21.964,10.117-27.215,21.878
						c-5.251,11.771-7.989,30.091-8.21,54.958l34.134-4.065l-0.642,72.053l-75.351,8.973L407.181,973.932z"/>
				</g>
			</g>
			<g>
				<g>
					<path style="fill:#FF4E45;" d="M1757.608,1227.309c-0.309,34.74-5.475,61.704-15.516,80.894
						c-10.031,19.189-26.429,30.559-49.198,34.135l-12.013-23.633c12.892-2.821,21.965-10.117,27.216-21.878
						c5.251-11.771,7.987-30.091,8.208-54.958l-34.132,4.064l0.642-72.053l75.349-8.972L1757.608,1227.309z"/>
					<path style="fill:#FF4E45;" d="M1655.655,1239.45c-0.309,34.74-5.477,61.704-15.518,80.894
						c-10.031,19.189-26.427,30.559-49.198,34.135l-12.013-23.634c12.892-2.82,21.964-10.117,27.215-21.878
						c5.252-11.771,7.989-30.091,8.21-54.958l-34.134,4.065l0.642-72.054l75.351-8.973L1655.655,1239.45z"/>
				</g>
				<g>
					<path style="fill:#FF4E45;" d="M310.085,981.216c0.309-34.739,5.474-61.704,15.515-80.894
						c10.031-19.188,26.429-30.559,49.198-34.134l12.013,23.633c-12.891,2.821-21.964,10.117-27.215,21.878
						c-5.251,11.771-7.987,30.09-8.208,54.958l34.132-4.064l-0.642,72.053l-75.349,8.972L310.085,981.216z"/>
					<path style="fill:#FF4E45;" d="M412.037,969.076c0.309-34.74,5.477-61.704,15.517-80.894
						c10.031-19.189,26.427-30.56,49.198-34.135l12.013,23.633c-12.892,2.82-21.965,10.117-27.216,21.878
						c-5.251,11.771-7.989,30.091-8.21,54.958l34.134-4.065l-0.642,72.053l-75.351,8.973L412.037,969.076z"/>
				</g>
			</g>
			<g>
				<g>
					<path style="fill:#FF483E;" d="M1762.464,1222.453c-0.309,34.74-5.475,61.704-15.516,80.894
						c-10.031,19.189-26.429,30.56-49.198,34.135l-12.013-23.633c12.892-2.821,21.965-10.117,27.216-21.878
						c5.251-11.771,7.987-30.091,8.208-54.958l-34.132,4.064l0.642-72.053l75.349-8.972L1762.464,1222.453z"/>
					<path style="fill:#FF483E;" d="M1660.511,1234.594c-0.309,34.74-5.477,61.704-15.518,80.894
						c-10.031,19.189-26.427,30.56-49.198,34.135l-12.013-23.633c12.892-2.82,21.964-10.117,27.216-21.878
						c5.252-11.771,7.989-30.091,8.21-54.958l-34.134,4.065l0.642-72.053l75.351-8.973L1660.511,1234.594z"/>
				</g>
				<g>
					<path style="fill:#FF483E;" d="M314.941,976.36c0.309-34.74,5.474-61.704,15.515-80.894
						c10.031-19.188,26.429-30.559,49.198-34.134l12.013,23.633c-12.892,2.821-21.965,10.117-27.215,21.878
						c-5.251,11.771-7.987,30.09-8.208,54.958l34.132-4.064l-0.642,72.053l-75.349,8.972L314.941,976.36z"/>
					<path style="fill:#FF483E;" d="M416.893,964.219c0.309-34.74,5.476-61.704,15.517-80.894
						c10.031-19.189,26.427-30.56,49.198-34.135l12.013,23.634c-12.892,2.82-21.965,10.117-27.216,21.878
						c-5.251,11.771-7.989,30.091-8.21,54.958l34.134-4.065l-0.642,72.053l-75.351,8.973L416.893,964.219z"/>
				</g>
			</g>
			<g>
				<g>
					<path style="fill:#FF4137;" d="M1767.32,1217.597c-0.309,34.74-5.475,61.704-15.516,80.894
						c-10.031,19.189-26.429,30.559-49.198,34.135l-12.013-23.633c12.892-2.821,21.965-10.117,27.216-21.878
						c5.251-11.771,7.987-30.091,8.208-54.958l-34.132,4.064l0.641-72.053l75.349-8.972L1767.32,1217.597z"/>
					<path style="fill:#FF4137;" d="M1665.368,1229.737c-0.309,34.74-5.477,61.704-15.518,80.894
						c-10.031,19.189-26.427,30.56-49.198,34.135l-12.013-23.633c12.892-2.82,21.964-10.117,27.216-21.878
						c5.252-11.771,7.989-30.091,8.21-54.958l-34.134,4.065l0.641-72.053l75.351-8.973L1665.368,1229.737z"/>
				</g>
				<g>
					<path style="fill:#FF4137;" d="M319.797,971.504c0.309-34.74,5.474-61.704,15.515-80.895
						c10.031-19.188,26.429-30.559,49.198-34.134l12.013,23.633c-12.892,2.821-21.965,10.117-27.216,21.878
						c-5.251,11.771-7.987,30.09-8.208,54.958l34.132-4.064l-0.642,72.053l-75.349,8.972L319.797,971.504z"/>
					<path style="fill:#FF4137;" d="M421.749,959.363c0.309-34.74,5.477-61.704,15.517-80.894
						c10.031-19.189,26.427-30.56,49.198-34.135l12.013,23.634c-12.892,2.82-21.965,10.117-27.216,21.878
						c-5.251,11.771-7.989,30.091-8.21,54.958l34.134-4.065l-0.642,72.053l-75.351,8.973L421.749,959.363z"/>
				</g>
			</g>
			<g>
				<g>
					<path style="fill:#FF3B30;" d="M1772.176,1212.74c-0.309,34.74-5.475,61.704-15.516,80.894
						c-10.031,19.189-26.429,30.559-49.198,34.135l-12.013-23.633c12.892-2.821,21.964-10.117,27.215-21.878
						c5.251-11.771,7.987-30.091,8.208-54.958l-34.132,4.064l0.641-72.053l75.349-8.972L1772.176,1212.74z"/>
					<path style="fill:#FF3B30;" d="M1670.224,1224.881c-0.309,34.74-5.477,61.704-15.518,80.894
						c-10.031,19.189-26.427,30.559-49.198,34.135l-12.013-23.633c12.892-2.82,21.965-10.117,27.216-21.878
						c5.252-11.771,7.989-30.091,8.21-54.958l-34.134,4.065l0.642-72.053l75.351-8.973L1670.224,1224.881z"/>
				</g>
				<g>
					<path style="fill:#FF3B30;" d="M324.653,966.648c0.309-34.74,5.474-61.704,15.515-80.894
						c10.031-19.188,26.429-30.559,49.198-34.134l12.013,23.633c-12.891,2.821-21.964,10.117-27.215,21.878
						c-5.251,11.771-7.987,30.09-8.208,54.958l34.132-4.064l-0.641,72.053l-75.349,8.972L324.653,966.648z"/>
					<path style="fill:#FF3B30;" d="M426.606,954.507c0.309-34.74,5.476-61.704,15.517-80.894
						c10.031-19.189,26.427-30.56,49.198-34.135l12.013,23.634c-12.892,2.82-21.964,10.117-27.215,21.878
						c-5.251,11.771-7.989,30.091-8.21,54.958l34.134-4.065l-0.642,72.054l-75.351,8.973L426.606,954.507z"/>
				</g>
			</g>
			<g>
				<g>
					<path style="fill:#FF3429;" d="M1777.032,1207.884c-0.309,34.74-5.475,61.704-15.516,80.894
						c-10.031,19.189-26.429,30.56-49.198,34.135l-12.013-23.633c12.892-2.821,21.964-10.118,27.215-21.878
						c5.251-11.771,7.987-30.091,8.208-54.958l-34.132,4.064l0.642-72.053l75.349-8.972L1777.032,1207.884z"/>
					<path style="fill:#FF3429;" d="M1675.08,1220.025c-0.309,34.74-5.477,61.704-15.518,80.894
						c-10.031,19.189-26.427,30.56-49.198,34.135l-12.013-23.634c12.892-2.82,21.965-10.117,27.216-21.878
						c5.252-11.771,7.989-30.091,8.21-54.958l-34.134,4.065l0.642-72.053l75.351-8.973L1675.08,1220.025z"/>
				</g>
				<g>
					<path style="fill:#FF3429;" d="M329.51,961.792c0.309-34.74,5.474-61.704,15.515-80.894
						c10.031-19.188,26.429-30.559,49.198-34.134l12.013,23.633c-12.891,2.821-21.964,10.117-27.216,21.878
						c-5.251,11.771-7.987,30.09-8.207,54.958l34.132-4.064l-0.642,72.053l-75.349,8.972L329.51,961.792z"/>
					<path style="fill:#FF3429;" d="M431.462,949.651c0.309-34.74,5.476-61.704,15.517-80.894
						c10.031-19.189,26.427-30.56,49.198-34.135l12.013,23.634c-12.892,2.82-21.964,10.117-27.215,21.878
						c-5.251,11.771-7.989,30.091-8.21,54.958l34.134-4.065l-0.642,72.053l-75.351,8.973L431.462,949.651z"/>
				</g>
			</g>
		</g>
		<g>
			<g>
				<path style="fill:#001A3B;" d="M1777.032,1207.884c-0.309,34.74-5.475,61.704-15.516,80.894
					c-10.031,19.189-26.429,30.56-49.198,34.135l-12.013-23.633c12.892-2.821,21.964-10.118,27.215-21.878
					c5.251-11.771,7.987-30.091,8.208-54.958l-34.132,4.064l0.642-72.053l75.349-8.972L1777.032,1207.884z"/>
				<path style="fill:#001A3B;" d="M1675.08,1220.025c-0.309,34.74-5.477,61.704-15.518,80.894
					c-10.031,19.189-26.427,30.56-49.198,34.135l-12.013-23.634c12.892-2.82,21.965-10.117,27.216-21.878
					c5.252-11.771,7.989-30.091,8.21-54.958l-34.134,4.065l0.642-72.053l75.351-8.973L1675.08,1220.025z"/>
			</g>
			<g>
				<path style="fill:#001A3B;" d="M329.51,961.792c0.309-34.74,5.474-61.704,15.515-80.894
					c10.031-19.188,26.429-30.559,49.198-34.134l12.013,23.633c-12.891,2.821-21.964,10.117-27.216,21.878
					c-5.251,11.771-7.987,30.09-8.207,54.958l34.132-4.064l-0.642,72.053l-75.349,8.972L329.51,961.792z"/>
				<path style="fill:#001A3B;" d="M431.462,949.651c0.309-34.74,5.476-61.704,15.517-80.894
					c10.031-19.189,26.427-30.56,49.198-34.135l12.013,23.634c-12.892,2.82-21.964,10.117-27.215,21.878
					c-5.251,11.771-7.989,30.091-8.21,54.958l34.134-4.065l-0.642,72.053l-75.351,8.973L431.462,949.651z"/>
			</g>
		</g>
	</g>
</g>
</svg>
